[ConversionWorker] Logging FFmpeg output to: ffmpeg_logs\ffmpeg_conversion_高冷20_wav_20250525_174356.log\n[ConversionWorker] Getting duration with command: ffprobe -v error -show_entries format=duration -of default=noprint_wrappers=1:nokey=1 Z:\Story\高冷\高冷20.wav\n[ConversionWorker] Duration for 高冷20.wav: 11266790 ms\n[ConversionWorker] Starting FFmpeg for 高冷20.wav: ffmpeg -i Z:\Story\高冷\高冷20.wav -b:a 128k -vn -y -loglevel error -stats -progress pipe:1 Z:\Story\高冷\高冷20.mp3\n[ConversionWorker] FFmpeg process started. PID: 29636\n[STDOUT RAW] bitrate= 124.1kbits/s\n[STDOUT RAW] total_size=85676\n[STDOUT RAW] out_time_us=5521958\n[STDOUT RAW] out_time_ms=5521958\n[STDOUT RAW] out_time=00:00:05.521958\n[STDOUT RAW] dup_frames=0\n[STDOUT RAW] drop_frames=0\n[STDOUT RAW] speed=10.6x\n[STDOUT RAW] progress=continue\n[STDERR RAW] size=      84KiB time=00:00:05.52 bitrate= 124.1kbits/s speed=10.6x\n[STDOUT RAW] bitrate= 126.1kbits/s\n[STDOUT RAW] total_size=173612\n[STDOUT RAW] out_time_us=11017958\n[STDOUT RAW] out_time_ms=11017958\n[STDOUT RAW] out_time=00:00:11.017958\n[STDOUT RAW] dup_frames=0\n[STDOUT RAW] drop_frames=0\n[STDOUT RAW] speed=10.6x\n[STDOUT RAW] progress=continue\n[STDERR RAW] size=     170KiB time=00:00:11.01 bitrate= 126.1kbits/s speed=10.6x\n[STDOUT RAW] bitrate= 126.6kbits/s\n[STDOUT RAW] total_size=250412\n[STDOUT RAW] out_time_us=15817958\n[STDOUT RAW] out_time_ms=15817958\n[STDOUT RAW] out_time=00:00:15.817958\n[STDOUT RAW] dup_frames=0\n[STDOUT RAW] drop_frames=0\n[STDOUT RAW] speed=10.2x\n[STDOUT RAW] progress=continue\n[STDERR RAW] size=     245KiB time=00:00:15.81 bitrate= 126.6kbits/s speed=10.2x\n[STDOUT RAW] bitrate= 115.4kbits/s\n[STDOUT RAW] total_size=1835008\n[STDOUT RAW] out_time_us=127225958\n[STDOUT RAW] out_time_ms=127225958\n[STDOUT RAW] out_time=00:02:07.225958\n[STDOUT RAW] dup_frames=0\n[STDOUT RAW] drop_frames=0\n[STDOUT RAW] speed=61.3x\n[STDOUT RAW] progress=continue\n[STDERR RAW] size=    1792KiB time=00:02:07.22 bitrate= 115.4kbits/s speed=61.3x\n[STDOUT RAW] bitrate= 119.4kbits/s\n[STDOUT RAW] total_size=3670016\n[STDOUT RAW] out_time_us=245881958\n[STDOUT RAW] out_time_ms=245881958\n[STDOUT RAW] out_time=00:04:05.881958\n[STDOUT RAW] dup_frames=0\n[STDOUT RAW] drop_frames=0\n[STDOUT RAW] speed=94.9x\n[STDOUT RAW] progress=continue\n[STDERR RAW] size=    3584KiB time=00:04:05.88 bitrate= 119.4kbits/s speed=94.9x\n[STDOUT RAW] bitrate= 127.3kbits/s\n[STDOUT RAW] total_size=5767168\n[STDOUT RAW] out_time_us=362473958\n[STDOUT RAW] out_time_ms=362473958\n[STDOUT RAW] out_time=00:06:02.473958\n[STDOUT RAW] dup_frames=0\n[STDOUT RAW] drop_frames=0\n[STDOUT RAW] speed= 116x\n[STDOUT RAW] progress=continue\n[STDERR RAW] size=    5632KiB time=00:06:02.47 bitrate= 127.3kbits/s speed= 116x\n[STDOUT RAW] bitrate= 125.1kbits/s\n[STDOUT RAW] total_size=7340032\n[STDOUT RAW] out_time_us=469345958\n[STDOUT RAW] out_time_ms=469345958\n[STDOUT RAW] out_time=00:07:49.345958\n[STDOUT RAW] dup_frames=0\n[STDOUT RAW] drop_frames=0\n[STDOUT RAW] speed= 130x\n[STDOUT RAW] progress=continue\n[STDERR RAW] size=    7168KiB time=00:07:49.34 bitrate= 125.1kbits/s speed= 130x\n[STDOUT RAW] bitrate= 126.3kbits/s\n[STDOUT RAW] total_size=9175040\n[STDOUT RAW] out_time_us=581089958\n[STDOUT RAW] out_time_ms=581089958\n[STDOUT RAW] out_time=00:09:41.089958\n[STDOUT RAW] dup_frames=0\n[STDOUT RAW] drop_frames=0\n[STDOUT RAW] speed= 140x\n[STDOUT RAW] progress=continue\n[STDERR RAW] size=    8960KiB time=00:09:41.08 bitrate= 126.3kbits/s speed= 140x\n[STDOUT RAW] bitrate= 127.6kbits/s\n[STDOUT RAW] total_size=11010048\n[STDOUT RAW] out_time_us=690433958\n[STDOUT RAW] out_time_ms=690433958\n[STDOUT RAW] out_time=00:11:30.433958\n[STDOUT RAW] dup_frames=0\n[STDOUT RAW] drop_frames=0\n[STDOUT RAW] speed= 148x\n[STDOUT RAW] progress=continue\n[STDERR RAW] size=   10752KiB time=00:11:30.43 bitrate= 127.6kbits/s speed= 148x\n[STDOUT RAW] bitrate= 125.4kbits/s\n[STDOUT RAW] total_size=12582912\n[STDOUT RAW] out_time_us=802945958\n[STDOUT RAW] out_time_ms=802945958\n[STDOUT RAW] out_time=00:13:22.945958\n[STDOUT RAW] dup_frames=0\n[STDOUT RAW] drop_frames=0\n[STDOUT RAW] speed= 155x\n[STDOUT RAW] progress=continue\n[STDERR RAW] size=   12288KiB time=00:13:22.94 bitrate= 125.4kbits/s speed= 155x\n[STDOUT RAW] bitrate= 126.9kbits/s\n[STDOUT RAW] total_size=14417920\n[STDOUT RAW] out_time_us=908929958\n[STDOUT RAW] out_time_ms=908929958\n[STDOUT RAW] out_time=00:15:08.929958\n[STDOUT RAW] dup_frames=0\n[STDOUT RAW] drop_frames=0\n[STDOUT RAW] speed= 160x\n[STDOUT RAW] progress=continue\n[STDERR RAW] size=   14080KiB time=00:15:08.92 bitrate= 126.9kbits/s speed= 160x\n[STDOUT RAW] bitrate= 127.9kbits/s\n[STDOUT RAW] total_size=15990784\n[STDOUT RAW] out_time_us=1000129958\n[STDOUT RAW] out_time_ms=1000129958\n[STDOUT RAW] out_time=00:16:40.129958\n[STDOUT RAW] dup_frames=0\n[STDOUT RAW] drop_frames=0\n[STDOUT RAW] speed= 161x\n[STDOUT RAW] progress=continue\n[STDERR RAW] size=   15616KiB time=00:16:40.12 bitrate= 127.9kbits/s speed= 161x\n[STDOUT RAW] bitrate= 127.5kbits/s\n[STDOUT RAW] total_size=17563648\n[STDOUT RAW] out_time_us=1101913958\n[STDOUT RAW] out_time_ms=1101913958\n[STDOUT RAW] out_time=00:18:21.913958\n[STDOUT RAW] dup_frames=0\n[STDOUT RAW] drop_frames=0\n[STDOUT RAW] speed= 164x\n[STDOUT RAW] progress=continue\n[STDERR RAW] size=   17152KiB time=00:18:21.91 bitrate= 127.5kbits/s speed= 164x\n[STDOUT RAW] bitrate= 126.7kbits/s\n[STDOUT RAW] total_size=19136512\n[STDOUT RAW] out_time_us=1208545958\n[STDOUT RAW] out_time_ms=1208545958\n[STDOUT RAW] out_time=00:20:08.545958\n[STDOUT RAW] dup_frames=0\n[STDOUT RAW] drop_frames=0\n[STDOUT RAW] speed= 167x\n[STDOUT RAW] progress=continue\n[STDERR RAW] size=   18688KiB time=00:20:08.54 bitrate= 126.7kbits/s speed= 167x\n[STDOUT RAW] bitrate= 126.4kbits/s\n[STDOUT RAW] total_size=20709376\n[STDOUT RAW] out_time_us=1310857958\n[STDOUT RAW] out_time_ms=1310857958\n[STDOUT RAW] out_time=00:21:50.857958\n[STDOUT RAW] dup_frames=0\n[STDOUT RAW] drop_frames=0\n[STDOUT RAW] speed= 169x\n[STDOUT RAW] progress=continue\n[STDERR RAW] size=   20224KiB time=00:21:50.85 bitrate= 126.4kbits/s speed= 169x\n[STDOUT RAW] bitrate= 126.6kbits/s\n[STDOUT RAW] total_size=22544384\n[STDOUT RAW] out_time_us=1424065958\n[STDOUT RAW] out_time_ms=1424065958\n[STDOUT RAW] out_time=00:23:44.065958\n[STDOUT RAW] dup_frames=0\n[STDOUT RAW] drop_frames=0\n[STDOUT RAW] speed= 172x\n[STDOUT RAW] progress=continue\n[STDERR RAW] size=   22016KiB time=00:23:44.06 bitrate= 126.6kbits/s speed= 172x\n[STDOUT RAW] bitrate= 127.2kbits/s\n[STDOUT RAW] total_size=24379392\n[STDOUT RAW] out_time_us=1533817958\n[STDOUT RAW] out_time_ms=1533817958\n[STDOUT RAW] out_time=00:25:33.817958\n[STDOUT RAW] dup_frames=0\n[STDOUT RAW] drop_frames=0\n[STDOUT RAW] speed= 174x\n[STDOUT RAW] progress=continue\n[STDERR RAW] size=   23808KiB time=00:25:33.81 bitrate= 127.2kbits/s speed= 174x\n[STDOUT RAW] bitrate= 126.7kbits/s\n[STDOUT RAW] total_size=25952256\n[STDOUT RAW] out_time_us=1638529958\n[STDOUT RAW] out_time_ms=1638529958\n[STDOUT RAW] out_time=00:27:18.529958\n[STDOUT RAW] dup_frames=0\n[STDOUT RAW] drop_frames=0\n[STDOUT RAW] speed= 176x\n[STDOUT RAW] progress=continue\n[STDERR RAW] size=   25344KiB time=00:27:18.52 bitrate= 126.7kbits/s speed= 176x\n[STDOUT RAW] bitrate= 127.6kbits/s\n[STDOUT RAW] total_size=27787264\n[STDOUT RAW] out_time_us=1741753958\n[STDOUT RAW] out_time_ms=1741753958\n[STDOUT RAW] out_time=00:29:01.753958\n[STDOUT RAW] dup_frames=0\n[STDOUT RAW] drop_frames=0\n[STDOUT RAW] speed= 177x\n[STDOUT RAW] progress=continue\n[STDERR RAW] size=   27136KiB time=00:29:01.75 bitrate= 127.6kbits/s speed= 177x\n[STDOUT RAW] bitrate= 127.1kbits/s\n[STDOUT RAW] total_size=29360128\n[STDOUT RAW] out_time_us=1848241958\n[STDOUT RAW] out_time_ms=1848241958\n[STDOUT RAW] out_time=00:30:48.241958\n[STDOUT RAW] dup_frames=0\n[STDOUT RAW] drop_frames=0\n[STDOUT RAW] speed= 179x\n[STDOUT RAW] progress=continue\n[STDERR RAW] size=   28672KiB time=00:30:48.24 bitrate= 127.1kbits/s speed= 179x\n[STDOUT RAW] bitrate= 127.9kbits/s\n[STDOUT RAW] total_size=31195136\n[STDOUT RAW] out_time_us=1950841958\n[STDOUT RAW] out_time_ms=1950841958\n[STDOUT RAW] out_time=00:32:30.841958\n[STDOUT RAW] dup_frames=0\n[STDOUT RAW] drop_frames=0\n[STDOUT RAW] speed= 180x\n[STDOUT RAW] progress=continue\n[STDERR RAW] size=   30464KiB time=00:32:30.84 bitrate= 127.9kbits/s speed= 180x\n[STDOUT RAW] bitrate= 127.5kbits/s\n[STDOUT RAW] total_size=32768000\n[STDOUT RAW] out_time_us=2055337958\n[STDOUT RAW] out_time_ms=2055337958\n[STDOUT RAW] out_time=00:34:15.337958\n[STDOUT RAW] dup_frames=0\n[STDOUT RAW] drop_frames=0\n[STDOUT RAW] speed= 181x\n[STDOUT RAW] progress=continue\n[STDERR RAW] size=   32000KiB time=00:34:15.33 bitrate= 127.5kbits/s speed= 181x\n[STDOUT RAW] bitrate= 127.3kbits/s\n[STDOUT RAW] total_size=34340864\n[STDOUT RAW] out_time_us=2158513958\n[STDOUT RAW] out_time_ms=2158513958\n[STDOUT RAW] out_time=00:35:58.513958\n[STDOUT RAW] dup_frames=0\n[STDOUT RAW] drop_frames=0\n[STDOUT RAW] speed= 182x\n[STDOUT RAW] progress=continue\n[STDERR RAW] size=   33536KiB time=00:35:58.51 bitrate= 127.3kbits/s speed= 182x\n[STDOUT RAW] bitrate= 127.1kbits/s\n[STDOUT RAW] total_size=35913728\n[STDOUT RAW] out_time_us=2259625958\n[STDOUT RAW] out_time_ms=2259625958\n[STDOUT RAW] out_time=00:37:39.625958\n[STDOUT RAW] dup_frames=0\n[STDOUT RAW] drop_frames=0\n[STDOUT RAW] speed= 182x\n[STDOUT RAW] progress=continue\n[STDERR RAW] size=   35072KiB time=00:37:39.62 bitrate= 127.1kbits/s speed= 182x\n[STDOUT RAW] bitrate= 127.8kbits/s\n[STDOUT RAW] total_size=37748736\n[STDOUT RAW] out_time_us=2363689958\n[STDOUT RAW] out_time_ms=2363689958\n[STDOUT RAW] out_time=00:39:23.689958\n[STDOUT RAW] dup_frames=0\n[STDOUT RAW] drop_frames=0\n[STDOUT RAW] speed= 183x\n[STDOUT RAW] progress=continue\n[STDERR RAW] size=   36864KiB time=00:39:23.68 bitrate= 127.8kbits/s speed= 183x\n[STDOUT RAW] bitrate= 127.7kbits/s\n[STDOUT RAW] total_size=39321600\n[STDOUT RAW] out_time_us=2462665958\n[STDOUT RAW] out_time_ms=2462665958\n[STDOUT RAW] out_time=00:41:02.665958\n[STDOUT RAW] dup_frames=0\n[STDOUT RAW] drop_frames=0\n[STDOUT RAW] speed= 183x\n[STDOUT RAW] progress=continue\n[STDERR RAW] size=   38400KiB time=00:41:02.66 bitrate= 127.7kbits/s speed= 183x\n[STDOUT RAW] bitrate= 127.5kbits/s\n[STDOUT RAW] total_size=40894464\n[STDOUT RAW] out_time_us=2566657958\n[STDOUT RAW] out_time_ms=2566657958\n[STDOUT RAW] out_time=00:42:46.657958\n[STDOUT RAW] dup_frames=0\n[STDOUT RAW] drop_frames=0\n[STDOUT RAW] speed= 184x\n[STDOUT RAW] progress=continue\n[STDERR RAW] size=   39936KiB time=00:42:46.65 bitrate= 127.5kbits/s speed= 184x\n[STDOUT RAW] bitrate= 127.3kbits/s\n[STDOUT RAW] total_size=42467328\n[STDOUT RAW] out_time_us=2669113958\n[STDOUT RAW] out_time_ms=2669113958\n[STDOUT RAW] out_time=00:44:29.113958\n[STDOUT RAW] dup_frames=0\n[STDOUT RAW] drop_frames=0\n[STDOUT RAW] speed= 185x\n[STDOUT RAW] progress=continue\n[STDERR RAW] size=   41472KiB time=00:44:29.11 bitrate= 127.3kbits/s speed= 185x\n[STDOUT RAW] bitrate= 127.2kbits/s\n[STDOUT RAW] total_size=44040192\n[STDOUT RAW] out_time_us=2769025958\n[STDOUT RAW] out_time_ms=2769025958\n[STDOUT RAW] out_time=00:46:09.025958\n[STDOUT RAW] dup_frames=0\n[STDOUT RAW] drop_frames=0\n[STDOUT RAW] speed= 185x\n[STDOUT RAW] progress=continue\n[STDERR RAW] size=   43008KiB time=00:46:09.02 bitrate= 127.2kbits/s speed= 185x\n[STDOUT RAW] bitrate= 127.4kbits/s\n[STDOUT RAW] total_size=45613056\n[STDOUT RAW] out_time_us=2864161958\n[STDOUT RAW] out_time_ms=2864161958\n[STDOUT RAW] out_time=00:47:44.161958\n[STDOUT RAW] dup_frames=0\n[STDOUT RAW] drop_frames=0\n[STDOUT RAW] speed= 185x\n[STDOUT RAW] progress=continue\n[STDERR RAW] size=   44544KiB time=00:47:44.16 bitrate= 127.4kbits/s speed= 185x\n[STDOUT RAW] bitrate= 127.5kbits/s\n[STDOUT RAW] total_size=47185920\n[STDOUT RAW] out_time_us=2960377958\n[STDOUT RAW] out_time_ms=2960377958\n[STDOUT RAW] out_time=00:49:20.377958\n[STDOUT RAW] dup_frames=0\n[STDOUT RAW] drop_frames=0\n[STDOUT RAW] speed= 185x\n[STDOUT RAW] progress=continue\n[STDERR RAW] size=   46080KiB time=00:49:20.37 bitrate= 127.5kbits/s speed= 185x\n[STDOUT RAW] bitrate= 127.4kbits/s\n[STDOUT RAW] total_size=48758784\n[STDOUT RAW] out_time_us=3061513958\n[STDOUT RAW] out_time_ms=3061513958\n[STDOUT RAW] out_time=00:51:01.513958\n[STDOUT RAW] dup_frames=0\n[STDOUT RAW] drop_frames=0\n[STDOUT RAW] speed= 185x\n[STDOUT RAW] progress=continue\n[STDERR RAW] size=   47616KiB time=00:51:01.51 bitrate= 127.4kbits/s speed= 185x\n[STDOUT RAW] bitrate= 127.9kbits/s\n[STDOUT RAW] total_size=50593792\n[STDOUT RAW] out_time_us=3164761958\n[STDOUT RAW] out_time_ms=3164761958\n[STDOUT RAW] out_time=00:52:44.761958\n[STDOUT RAW] dup_frames=0\n[STDOUT RAW] drop_frames=0\n[STDOUT RAW] speed= 186x\n[STDOUT RAW] progress=continue\n[STDERR RAW] size=   49408KiB time=00:52:44.76 bitrate= 127.9kbits/s speed= 186x\n[STDOUT RAW] bitrate= 127.6kbits/s\n[STDOUT RAW] total_size=52166656\n[STDOUT RAW] out_time_us=3270913958\n[STDOUT RAW] out_time_ms=3270913958\n[STDOUT RAW] out_time=00:54:30.913958\n[STDOUT RAW] dup_frames=0\n[STDOUT RAW] drop_frames=0\n[STDOUT RAW] speed= 186x\n[STDOUT RAW] progress=continue\n[STDERR RAW] size=   50944KiB time=00:54:30.91 bitrate= 127.6kbits/s speed= 186x\n[STDOUT RAW] bitrate= 127.9kbits/s\n[STDOUT RAW] total_size=54001664\n[STDOUT RAW] out_time_us=3378385958\n[STDOUT RAW] out_time_ms=3378385958\n[STDOUT RAW] out_time=00:56:18.385958\n[STDOUT RAW] dup_frames=0\n[STDOUT RAW] drop_frames=0\n[STDOUT RAW] speed= 187x\n[STDOUT RAW] progress=continue\n[STDOUT RAW] bitrate= 127.6kbits/s\n[STDOUT RAW] total_size=55574528\n[STDOUT RAW] out_time_us=3485329958\n[STDOUT RAW] out_time_ms=3485329958\n[STDERR RAW] size=   52736KiB time=00:56:18.38 bitrate= 127.9kbits/s speed= 187x\n[STDOUT RAW] out_time=00:58:05.329958\n[STDOUT RAW] dup_frames=0\n[STDOUT RAW] drop_frames=0\n[STDOUT RAW] speed= 188x\n[STDOUT RAW] progress=continue\n[STDERR RAW] size=   54272KiB time=00:58:05.32 bitrate= 127.6kbits/s speed= 188x\n[STDOUT RAW] bitrate= 127.5kbits/s\n[STDOUT RAW] total_size=57409536\n[STDOUT RAW] out_time_us=3601561958\n[STDOUT RAW] out_time_ms=3601561958\n[STDOUT RAW] out_time=01:00:01.561958\n[STDOUT RAW] dup_frames=0\n[STDOUT RAW] drop_frames=0\n[STDOUT RAW] speed= 189x\n[STDOUT RAW] progress=continue\n[STDERR RAW] size=   56064KiB time=01:00:01.56 bitrate= 127.5kbits/s speed= 189x\n[STDOUT RAW] bitrate= 127.7kbits/s\n[STDOUT RAW] total_size=59244544\n[STDOUT RAW] out_time_us=3711889958\n[STDOUT RAW] out_time_ms=3711889958\n[STDOUT RAW] out_time=01:01:51.889958\n[STDOUT RAW] dup_frames=0\n[STDOUT RAW] drop_frames=0\n[STDOUT RAW] speed= 189x\n[STDOUT RAW] progress=continue\n[STDOUT RAW] bitrate= 127.6kbits/s\n[STDERR RAW] size=   57856KiB time=01:01:51.88 bitrate= 127.7kbits/s speed= 189x\n[STDOUT RAW] total_size=61079552\n[STDOUT RAW] out_time_us=3828169958\n[STDOUT RAW] out_time_ms=3828169958\n[STDOUT RAW] out_time=01:03:48.169958\n[STDOUT RAW] dup_frames=0\n[STDOUT RAW] drop_frames=0\n[STDOUT RAW] speed= 190x\n[STDOUT RAW] progress=continue\n[STDERR RAW] size=   59648KiB time=01:03:48.16 bitrate= 127.6kbits/s speed= 190x\n[STDOUT RAW] bitrate= 127.9kbits/s\n[STDOUT RAW] total_size=63176704\n[STDOUT RAW] out_time_us=3950281958\n[STDOUT RAW] out_time_ms=3950281958\n[STDOUT RAW] out_time=01:05:50.281958\n[STDOUT RAW] dup_frames=0\n[STDOUT RAW] drop_frames=0\n[STDOUT RAW] speed= 191x\n[STDOUT RAW] progress=continue\n[STDERR RAW] size=   61696KiB time=01:05:50.28 bitrate= 127.9kbits/s speed= 191x\n[STDOUT RAW] bitrate= 127.7kbits/s\n[STDOUT RAW] total_size=65011712\n[STDOUT RAW] out_time_us=4074145958\n[STDOUT RAW] out_time_ms=4074145958\n[STDOUT RAW] out_time=01:07:54.145958\n[STDOUT RAW] dup_frames=0\n[STDOUT RAW] drop_frames=0\n[STDOUT RAW] speed= 193x\n[STDOUT RAW] progress=continue\n[STDERR RAW] size=   63488KiB time=01:07:54.14 bitrate= 127.7kbits/s speed= 193x\n[STDOUT RAW] bitrate= 127.9kbits/s\n[STDOUT RAW] total_size=67108864\n[STDOUT RAW] out_time_us=4196617958\n[STDOUT RAW] out_time_ms=4196617958\n[STDOUT RAW] out_time=01:09:56.617958\n[STDOUT RAW] dup_frames=0\n[STDOUT RAW] drop_frames=0\n[STDOUT RAW] speed= 194x\n[STDOUT RAW] progress=continue\n[STDERR RAW] size=   65536KiB time=01:09:56.61 bitrate= 127.9kbits/s speed= 194x\n[STDOUT RAW] bitrate= 127.9kbits/s\n[STDOUT RAW] total_size=68943872\n[STDOUT RAW] out_time_us=4312441958\n[STDOUT RAW] out_time_ms=4312441958\n[STDOUT RAW] out_time=01:11:52.441958\n[STDOUT RAW] dup_frames=0\n[STDOUT RAW] drop_frames=0\n[STDOUT RAW] speed= 194x\n[STDOUT RAW] progress=continue\n[STDERR RAW] size=   67328KiB time=01:11:52.44 bitrate= 127.9kbits/s speed= 194x\n[STDOUT RAW] bitrate= 127.5kbits/s\n[STDOUT RAW] total_size=70516736\n[STDOUT RAW] out_time_us=4423801958\n[STDOUT RAW] out_time_ms=4423801958\n[STDOUT RAW] out_time=01:13:43.801958\n[STDOUT RAW] dup_frames=0\n[STDOUT RAW] drop_frames=0\n[STDOUT RAW] speed= 195x\n[STDOUT RAW] progress=continue\n[STDERR RAW] size=   68864KiB time=01:13:43.80 bitrate= 127.5kbits/s speed= 195x\n[STDOUT RAW] bitrate= 127.8kbits/s\n[STDOUT RAW] total_size=72351744\n[STDOUT RAW] out_time_us=4530169958\n[STDOUT RAW] out_time_ms=4530169958\n[STDOUT RAW] out_time=01:15:30.169958\n[STDOUT RAW] dup_frames=0\n[STDOUT RAW] drop_frames=0\n[STDOUT RAW] speed= 195x\n[STDOUT RAW] progress=continue\n[STDERR RAW] size=   70656KiB time=01:15:30.16 bitrate= 127.8kbits/s speed= 195x\n[STDOUT RAW] bitrate= 127.8kbits/s\n[STDOUT RAW] total_size=74186752\n[STDOUT RAW] out_time_us=4644721958\n[STDOUT RAW] out_time_ms=4644721958\n[STDOUT RAW] out_time=01:17:24.721958\n[STDOUT RAW] dup_frames=0\n[STDOUT RAW] drop_frames=0\n[STDOUT RAW] speed= 196x\n[STDOUT RAW] progress=continue\n[STDERR RAW] size=   72448KiB time=01:17:24.72 bitrate= 127.8kbits/s speed= 196x\n[STDOUT RAW] bitrate= 127.6kbits/s\n[STDOUT RAW] total_size=75759616\n[STDOUT RAW] out_time_us=4749529958\n[STDOUT RAW] out_time_ms=4749529958\n[STDOUT RAW] out_time=01:19:09.529958\n[STDOUT RAW] dup_frames=0\n[STDOUT RAW] drop_frames=0\n[STDOUT RAW] speed= 196x\n[STDOUT RAW] progress=continue\n[STDERR RAW] size=   73984KiB time=01:19:09.52 bitrate= 127.6kbits/s speed= 196x\n[STDOUT RAW] bitrate= 127.7kbits/s\n[STDOUT RAW] total_size=77594624\n[STDOUT RAW] out_time_us=4861921958\n[STDOUT RAW] out_time_ms=4861921958\n[STDOUT RAW] out_time=01:21:01.921958\n[STDOUT RAW] dup_frames=0\n[STDOUT RAW] drop_frames=0\n[STDOUT RAW] speed= 196x\n[STDOUT RAW] progress=continue\n[STDERR RAW] size=   75776KiB time=01:21:01.92 bitrate= 127.7kbits/s speed= 196x\n[STDOUT RAW] bitrate= 127.8kbits/s\n[STDOUT RAW] total_size=79429632\n[STDOUT RAW] out_time_us=4971577958\n[STDOUT RAW] out_time_ms=4971577958\n[STDOUT RAW] out_time=01:22:51.577958\n[STDOUT RAW] dup_frames=0\n[STDOUT RAW] drop_frames=0\n[STDOUT RAW] speed= 197x\n[STDOUT RAW] progress=continue\n[STDERR RAW] size=   77568KiB time=01:22:51.57 bitrate= 127.8kbits/s speed= 197x\n[STDOUT RAW] bitrate= 127.6kbits/s\n[STDOUT RAW] total_size=81002496\n[STDOUT RAW] out_time_us=5079169958\n[STDOUT RAW] out_time_ms=5079169958\n[STDOUT RAW] out_time=01:24:39.169958\n[STDOUT RAW] dup_frames=0\n[STDOUT RAW] drop_frames=0\n[STDOUT RAW] speed= 197x\n[STDOUT RAW] progress=continue\n[STDERR RAW] size=   79104KiB time=01:24:39.16 bitrate= 127.6kbits/s speed= 197x\n[STDOUT RAW] bitrate= 127.6kbits/s\n[STDOUT RAW] total_size=82837504\n[STDOUT RAW] out_time_us=5191993958\n[STDOUT RAW] out_time_ms=5191993958\n[STDOUT RAW] out_time=01:26:31.993958\n[STDOUT RAW] dup_frames=0\n[STDOUT RAW] drop_frames=0\n[STDOUT RAW] speed= 197x\n[STDOUT RAW] progress=continue\n[STDERR RAW] size=   80896KiB time=01:26:31.99 bitrate= 127.6kbits/s speed= 197x\n[STDOUT RAW] bitrate= 127.6kbits/s\n[STDOUT RAW] total_size=84410368\n[STDOUT RAW] out_time_us=5291161958\n[STDOUT RAW] out_time_ms=5291161958\n[STDOUT RAW] out_time=01:28:11.161958\n[STDOUT RAW] dup_frames=0\n[STDOUT RAW] drop_frames=0\n[STDOUT RAW] speed= 197x\n[STDOUT RAW] progress=continue\n[STDERR RAW] size=   82432KiB time=01:28:11.16 bitrate= 127.6kbits/s speed= 197x\n[STDOUT RAW] bitrate= 127.8kbits/s\n[STDOUT RAW] total_size=86245376\n[STDOUT RAW] out_time_us=5397481958\n[STDOUT RAW] out_time_ms=5397481958\n[STDOUT RAW] out_time=01:29:57.481958\n[STDOUT RAW] dup_frames=0\n[STDOUT RAW] drop_frames=0\n[STDOUT RAW] speed= 197x\n[STDOUT RAW] progress=continue\n[STDERR RAW] size=   84224KiB time=01:29:57.48 bitrate= 127.8kbits/s speed= 197x\n[STDOUT RAW] bitrate= 127.9kbits/s\n[STDOUT RAW] total_size=88080384\n[STDOUT RAW] out_time_us=5509105958\n[STDOUT RAW] out_time_ms=5509105958\n[STDOUT RAW] out_time=01:31:49.105958\n[STDOUT RAW] dup_frames=0\n[STDOUT RAW] drop_frames=0\n[STDOUT RAW] speed= 198x\n[STDOUT RAW] progress=continue\n[STDERR RAW] size=   86016KiB time=01:31:49.10 bitrate= 127.9kbits/s speed= 198x\n[STDOUT RAW] bitrate= 127.6kbits/s\n[STDOUT RAW] total_size=89653248\n[STDOUT RAW] out_time_us=5619841958\n[STDOUT RAW] out_time_ms=5619841958\n[STDOUT RAW] out_time=01:33:39.841958\n[STDOUT RAW] dup_frames=0\n[STDOUT RAW] drop_frames=0\n[STDOUT RAW] speed= 198x\n[STDOUT RAW] progress=continue\n[STDERR RAW] size=   87552KiB time=01:33:39.84 bitrate= 127.6kbits/s speed= 198x\n[STDOUT RAW] bitrate= 127.7kbits/s\n[STDOUT RAW] total_size=91488256\n[STDOUT RAW] out_time_us=5729713958\n[STDOUT RAW] out_time_ms=5729713958\n[STDOUT RAW] out_time=01:35:29.713958\n[STDOUT RAW] dup_frames=0\n[STDOUT RAW] drop_frames=0\n[STDOUT RAW] speed= 198x\n[STDOUT RAW] progress=continue\n[STDERR RAW] size=   89344KiB time=01:35:29.71 bitrate= 127.7kbits/s speed= 198x\n[STDOUT RAW] bitrate= 127.8kbits/s\n[STDOUT RAW] total_size=93323264\n[STDOUT RAW] out_time_us=5841985958\n[STDOUT RAW] out_time_ms=5841985958\n[STDOUT RAW] out_time=01:37:21.985958\n[STDOUT RAW] dup_frames=0\n[STDOUT RAW] drop_frames=0\n[STDOUT RAW] speed= 199x\n[STDOUT RAW] progress=continue\n[STDERR RAW] size=   91136KiB time=01:37:21.98 bitrate= 127.8kbits/s speed= 199x\n[STDOUT RAW] bitrate= 127.7kbits/s\n[STDOUT RAW] total_size=95158272\n[STDOUT RAW] out_time_us=5959105958\n[STDOUT RAW] out_time_ms=5959105958\n[STDOUT RAW] out_time=01:39:19.105958\n[STDOUT RAW] dup_frames=0\n[STDOUT RAW] drop_frames=0\n[STDOUT RAW] speed= 199x\n[STDOUT RAW] progress=continue\n[STDERR RAW] size=   92928KiB time=01:39:19.10 bitrate= 127.7kbits/s speed= 199x\n[STDOUT RAW] bitrate= 127.9kbits/s\n[STDOUT RAW] total_size=96993280\n[STDOUT RAW] out_time_us=6068185958\n[STDOUT RAW] out_time_ms=6068185958\n[STDOUT RAW] out_time=01:41:08.185958\n[STDOUT RAW] dup_frames=0\n[STDOUT RAW] drop_frames=0\n[STDOUT RAW] speed= 199x\n[STDOUT RAW] progress=continue\n[STDERR RAW] size=   94720KiB time=01:41:08.18 bitrate= 127.9kbits/s speed= 199x\n[STDOUT RAW] bitrate= 127.9kbits/s\n[STDOUT RAW] total_size=98828288\n[STDOUT RAW] out_time_us=6180073958\n[STDOUT RAW] out_time_ms=6180073958\n[STDOUT RAW] out_time=01:43:00.073958\n[STDOUT RAW] dup_frames=0\n[STDOUT RAW] drop_frames=0\n[STDOUT RAW] speed=200x\n[STDOUT RAW] progress=continue\n[STDERR RAW] size=   96512KiB time=01:43:00.07 bitrate= 127.9kbits/s speed=200x\n[STDOUT RAW] bitrate= 128.0kbits/s\n[STDOUT RAW] total_size=100663296\n[STDOUT RAW] out_time_us=6293665958\n[STDOUT RAW] out_time_ms=6293665958\n[STDOUT RAW] out_time=01:44:53.665958\n[STDOUT RAW] dup_frames=0\n[STDOUT RAW] drop_frames=0\n[STDOUT RAW] speed=200x\n[STDOUT RAW] progress=continue\n[STDERR RAW] size=   98304KiB time=01:44:53.66 bitrate= 128.0kbits/s speed=200x\n[STDOUT RAW] bitrate= 127.9kbits/s\n[STDOUT RAW] total_size=102236160\n[STDOUT RAW] out_time_us=6396217958\n[STDOUT RAW] out_time_ms=6396217958\n[STDOUT RAW] out_time=01:46:36.217958\n[STDOUT RAW] dup_frames=0\n[STDOUT RAW] drop_frames=0\n[STDOUT RAW] speed=200x\n[STDOUT RAW] progress=continue\n[STDOUT RAW] bitrate= 127.9kbits/s\n[STDOUT RAW] total_size=104071168\n[STDOUT RAW] out_time_us=6509449958\n[STDOUT RAW] out_time_ms=6509449958\n[STDOUT RAW] out_time=01:48:29.449958\n[STDOUT RAW] dup_frames=0\n[STDOUT RAW] drop_frames=0\n[STDOUT RAW] speed=200x\n[STDOUT RAW] progress=continue\n[STDERR RAW] size=   99840KiB time=01:46:36.21 bitrate= 127.9kbits/s speed=200x\n[STDERR RAW] size=  101632KiB time=01:48:29.44 bitrate= 127.9kbits/s speed=200x\n[STDOUT RAW] bitrate= 127.8kbits/s\n[STDOUT RAW] total_size=105906176\n[STDOUT RAW] out_time_us=6628609958\n[STDOUT RAW] out_time_ms=6628609958\n[STDOUT RAW] out_time=01:50:28.609958\n[STDOUT RAW] dup_frames=0\n[STDOUT RAW] drop_frames=0\n[STDOUT RAW] speed= 201x\n[STDOUT RAW] progress=continue\n[STDERR RAW] size=  103424KiB time=01:50:28.60 bitrate= 127.8kbits/s speed= 201x\n[STDOUT RAW] bitrate= 127.7kbits/s\n[STDOUT RAW] total_size=107741184\n[STDOUT RAW] out_time_us=6747145958\n[STDOUT RAW] out_time_ms=6747145958\n[STDOUT RAW] out_time=01:52:27.145958\n[STDOUT RAW] dup_frames=0\n[STDOUT RAW] drop_frames=0\n[STDOUT RAW] speed= 201x\n[STDOUT RAW] progress=continue\n[STDERR RAW] size=  105216KiB time=01:52:27.14 bitrate= 127.7kbits/s speed= 201x\n[STDOUT RAW] bitrate= 127.7kbits/s\n[STDOUT RAW] total_size=109576192\n[STDOUT RAW] out_time_us=6862897958\n[STDOUT RAW] out_time_ms=6862897958\n[STDOUT RAW] out_time=01:54:22.897958\n[STDOUT RAW] dup_frames=0\n[STDOUT RAW] drop_frames=0\n[STDOUT RAW] speed= 201x\n[STDOUT RAW] progress=continue\n[STDERR RAW] size=  107008KiB time=01:54:22.89 bitrate= 127.7kbits/s speed= 201x\n[STDOUT RAW] bitrate= 127.8kbits/s\n[STDOUT RAW] total_size=111411200\n[STDOUT RAW] out_time_us=6976441958\n[STDOUT RAW] out_time_ms=6976441958\n[STDOUT RAW] out_time=01:56:16.441958\n[STDOUT RAW] dup_frames=0\n[STDOUT RAW] drop_frames=0\n[STDOUT RAW] speed= 202x\n[STDOUT RAW] progress=continue\n[STDOUT RAW] bitrate= 127.8kbits/s\n[STDOUT RAW] total_size=113246208\n[STDOUT RAW] out_time_us=7087537958\n[STDOUT RAW] out_time_ms=7087537958\n[STDOUT RAW] out_time=01:58:07.537958\n[STDOUT RAW] dup_frames=0\n[STDOUT RAW] drop_frames=0\n[STDOUT RAW] speed= 202x\n[STDOUT RAW] progress=continue\n[STDERR RAW] size=  108800KiB time=01:56:16.44 bitrate= 127.8kbits/s speed= 202x\n[STDERR RAW] size=  110592KiB time=01:58:07.53 bitrate= 127.8kbits/s speed= 202x\n[STDOUT RAW] bitrate= 127.9kbits/s\n[STDOUT RAW] total_size=115081216\n[STDOUT RAW] out_time_us=7195801958\n[STDOUT RAW] out_time_ms=7195801958\n[STDOUT RAW] out_time=01:59:55.801958\n[STDOUT RAW] dup_frames=0\n[STDOUT RAW] drop_frames=0\n[STDOUT RAW] speed= 202x\n[STDOUT RAW] progress=continue\n[STDERR RAW] size=  112384KiB time=01:59:55.80 bitrate= 127.9kbits/s speed= 202x\n[STDOUT RAW] bitrate= 127.8kbits/s\n[STDOUT RAW] total_size=116654080\n[STDOUT RAW] out_time_us=7304233958\n[STDOUT RAW] out_time_ms=7304233958\n[STDOUT RAW] out_time=02:01:44.233958\n[STDOUT RAW] dup_frames=0\n[STDOUT RAW] drop_frames=0\n[STDOUT RAW] speed= 202x\n[STDOUT RAW] progress=continue\n[STDERR RAW] size=  113920KiB time=02:01:44.23 bitrate= 127.8kbits/s speed= 202x\n[STDOUT RAW] bitrate= 127.7kbits/s\n[STDOUT RAW] total_size=118226944\n[STDOUT RAW] out_time_us=7403809958\n[STDOUT RAW] out_time_ms=7403809958\n[STDOUT RAW] out_time=02:03:23.809958\n[STDOUT RAW] dup_frames=0\n[STDOUT RAW] drop_frames=0\n[STDOUT RAW] speed= 202x\n[STDOUT RAW] progress=continue\n[STDERR RAW] size=  115456KiB time=02:03:23.80 bitrate= 127.7kbits/s speed= 202x\n[STDOUT RAW] bitrate= 127.8kbits/s\n[STDOUT RAW] total_size=119799808\n[STDOUT RAW] out_time_us=7501945958\n[STDOUT RAW] out_time_ms=7501945958\n[STDOUT RAW] out_time=02:05:01.945958\n[STDOUT RAW] dup_frames=0\n[STDOUT RAW] drop_frames=0\n[STDOUT RAW] speed= 202x\n[STDOUT RAW] progress=continue\n[STDERR RAW] size=  116992KiB time=02:05:01.94 bitrate= 127.8kbits/s speed= 202x\n[STDOUT RAW] bitrate= 128.0kbits/s\n[STDOUT RAW] total_size=121634816\n[STDOUT RAW] out_time_us=7603585958\n[STDOUT RAW] out_time_ms=7603585958\n[STDOUT RAW] out_time=02:06:43.585958\n[STDOUT RAW] dup_frames=0\n[STDOUT RAW] drop_frames=0\n[STDOUT RAW] speed= 202x\n[STDOUT RAW] progress=continue\n[STDOUT RAW] bitrate= 127.9kbits/s\n[STDOUT RAW] total_size=123207680\n[STDERR RAW] size=  118784KiB time=02:06:43.58 bitrate= 128.0kbits/s speed= 202x\n[STDOUT RAW] out_time_us=7707385958\n[STDOUT RAW] out_time_ms=7707385958\n[STDOUT RAW] out_time=02:08:27.385958\n[STDOUT RAW] dup_frames=0\n[STDOUT RAW] drop_frames=0\n[STDOUT RAW] speed= 202x\n[STDOUT RAW] progress=continue\n[STDERR RAW] size=  120320KiB time=02:08:27.38 bitrate= 127.9kbits/s speed= 202x\n[STDOUT RAW] bitrate= 127.9kbits/s\n[STDOUT RAW] total_size=124780544\n[STDOUT RAW] out_time_us=7806841958\n[STDOUT RAW] out_time_ms=7806841958\n[STDOUT RAW] out_time=02:10:06.841958\n[STDOUT RAW] dup_frames=0\n[STDOUT RAW] drop_frames=0\n[STDOUT RAW] speed= 202x\n[STDOUT RAW] progress=continue\n[STDERR RAW] size=  121856KiB time=02:10:06.84 bitrate= 127.9kbits/s speed= 202x\n[STDOUT RAW] bitrate= 127.9kbits/s\n[STDOUT RAW] total_size=126615552\n[STDOUT RAW] out_time_us=7916809958\n[STDOUT RAW] out_time_ms=7916809958\n[STDOUT RAW] out_time=02:11:56.809958\n[STDOUT RAW] dup_frames=0\n[STDOUT RAW] drop_frames=0\n[STDOUT RAW] speed= 202x\n[STDOUT RAW] progress=continue\n[STDERR RAW] size=  123648KiB time=02:11:56.80 bitrate= 127.9kbits/s speed= 202x\n[STDOUT RAW] bitrate= 127.7kbits/s\n[STDOUT RAW] total_size=127926272\n[STDOUT RAW] out_time_us=8011897958\n[STDOUT RAW] out_time_ms=8011897958\n[STDOUT RAW] out_time=02:13:31.897958\n[STDOUT RAW] dup_frames=0\n[STDOUT RAW] drop_frames=0\n[STDOUT RAW] speed= 202x\n[STDOUT RAW] progress=continue\n[STDERR RAW] size=  124928KiB time=02:13:31.89 bitrate= 127.7kbits/s speed= 202x\n[STDOUT RAW] bitrate= 127.8kbits/s\n[STDOUT RAW] total_size=129761280\n[STDOUT RAW] out_time_us=8121097958\n[STDOUT RAW] out_time_ms=8121097958\n[STDOUT RAW] out_time=02:15:21.097958\n[STDOUT RAW] dup_frames=0\n[STDOUT RAW] drop_frames=0\n[STDOUT RAW] speed= 202x\n[STDOUT RAW] progress=continue\n[STDERR RAW] size=  126720KiB time=02:15:21.09 bitrate= 127.8kbits/s speed= 202x\n[STDOUT RAW] bitrate= 127.8kbits/s\n[STDOUT RAW] total_size=131334144\n[STDOUT RAW] out_time_us=8222905958\n[STDOUT RAW] out_time_ms=8222905958\n[STDOUT RAW] out_time=02:17:02.905958\n[STDOUT RAW] dup_frames=0\n[STDOUT RAW] drop_frames=0\n[STDOUT RAW] speed= 202x\n[STDOUT RAW] progress=continue\n[STDERR RAW] size=  128256KiB time=02:17:02.90 bitrate= 127.8kbits/s speed= 202x\n[STDOUT RAW] bitrate= 127.8kbits/s\n[STDOUT RAW] total_size=132907008\n[STDOUT RAW] out_time_us=8321929958\n[STDOUT RAW] out_time_ms=8321929958\n[STDOUT RAW] out_time=02:18:41.929958\n[STDOUT RAW] dup_frames=0\n[STDOUT RAW] drop_frames=0\n[STDOUT RAW] speed= 202x\n[STDOUT RAW] progress=continue\n[STDERR RAW] size=  129792KiB time=02:18:41.92 bitrate= 127.8kbits/s speed= 202x\n[STDOUT RAW] bitrate= 127.8kbits/s\n[STDOUT RAW] total_size=134742016\n[STDOUT RAW] out_time_us=8433169958\n[STDOUT RAW] out_time_ms=8433169958\n[STDOUT RAW] out_time=02:20:33.169958\n[STDOUT RAW] dup_frames=0\n[STDOUT RAW] drop_frames=0\n[STDOUT RAW] speed= 202x\n[STDOUT RAW] progress=continue\n[STDERR RAW] size=  131584KiB time=02:20:33.16 bitrate= 127.8kbits/s speed= 202x\n[STDOUT RAW] bitrate= 128.0kbits/s\n[STDOUT RAW] total_size=136577024\n[STDOUT RAW] out_time_us=8536873958\n[STDOUT RAW] out_time_ms=8536873958\n[STDOUT RAW] out_time=02:22:16.873958\n[STDOUT RAW] dup_frames=0\n[STDOUT RAW] drop_frames=0\n[STDOUT RAW] speed= 202x\n[STDOUT RAW] progress=continue\n[STDERR RAW] size=  133376KiB time=02:22:16.87 bitrate= 128.0kbits/s speed= 202x\n[STDOUT RAW] bitrate= 127.9kbits/s\n[STDOUT RAW] total_size=138149888\n[STDOUT RAW] out_time_us=8641945958\n[STDOUT RAW] out_time_ms=8641945958\n[STDOUT RAW] out_time=02:24:01.945958\n[STDOUT RAW] dup_frames=0\n[STDOUT RAW] drop_frames=0\n[STDOUT RAW] speed= 202x\n[STDOUT RAW] progress=continue\n[STDERR RAW] size=  134912KiB time=02:24:01.94 bitrate= 127.9kbits/s speed= 202x\n[STDOUT RAW] bitrate= 128.0kbits/s\n[STDOUT RAW] total_size=139722752\n[STDOUT RAW] out_time_us=8734633958\n[STDOUT RAW] out_time_ms=8734633958\n[STDOUT RAW] out_time=02:25:34.633958\n[STDOUT RAW] dup_frames=0\n[STDOUT RAW] drop_frames=0\n[STDOUT RAW] speed= 202x\n[STDOUT RAW] progress=continue\n[STDERR RAW] size=  136448KiB time=02:25:34.63 bitrate= 128.0kbits/s speed= 202x\n[STDOUT RAW] bitrate= 127.8kbits/s\n[STDOUT RAW] total_size=141295616\n[STDOUT RAW] out_time_us=8844601958\n[STDOUT RAW] out_time_ms=8844601958\n[STDOUT RAW] out_time=02:27:24.601958\n[STDOUT RAW] dup_frames=0\n[STDOUT RAW] drop_frames=0\n[STDOUT RAW] speed= 202x\n[STDOUT RAW] progress=continue\n[STDERR RAW] size=  137984KiB time=02:27:24.60 bitrate= 127.8kbits/s speed= 202x\n[STDOUT RAW] bitrate= 127.8kbits/s\n[STDOUT RAW] total_size=142868480\n[STDOUT RAW] out_time_us=8940433958\n[STDOUT RAW] out_time_ms=8940433958\n[STDOUT RAW] out_time=02:29:00.433958\n[STDOUT RAW] dup_frames=0\n[STDOUT RAW] drop_frames=0\n[STDOUT RAW] speed= 201x\n[STDOUT RAW] progress=continue\n[STDERR RAW] size=  139520KiB time=02:29:00.43 bitrate= 127.8kbits/s speed= 201x\n[STDOUT RAW] bitrate= 127.9kbits/s\n[STDOUT RAW] total_size=144441344\n[STDOUT RAW] out_time_us=9036313958\n[STDOUT RAW] out_time_ms=9036313958\n[STDOUT RAW] out_time=02:30:36.313958\n[STDOUT RAW] dup_frames=0\n[STDOUT RAW] drop_frames=0\n[STDOUT RAW] speed= 201x\n[STDOUT RAW] progress=continue\n[STDERR RAW] size=  141056KiB time=02:30:36.31 bitrate= 127.9kbits/s speed= 201x\n[STDOUT RAW] bitrate= 128.0kbits/s\n[STDOUT RAW] total_size=146014208\n[STDOUT RAW] out_time_us=9129073958\n[STDOUT RAW] out_time_ms=9129073958\n[STDOUT RAW] out_time=02:32:09.073958\n[STDOUT RAW] dup_frames=0\n[STDOUT RAW] drop_frames=0\n[STDOUT RAW] speed= 201x\n[STDOUT RAW] progress=continue\n[STDERR RAW] size=  142592KiB time=02:32:09.07 bitrate= 128.0kbits/s speed= 201x\n[STDOUT RAW] bitrate= 127.9kbits/s\n[STDOUT RAW] total_size=147587072\n[STDOUT RAW] out_time_us=9228817958\n[STDOUT RAW] out_time_ms=9228817958\n[STDOUT RAW] out_time=02:33:48.817958\n[STDOUT RAW] dup_frames=0\n[STDOUT RAW] drop_frames=0\n[STDOUT RAW] speed= 201x\n[STDOUT RAW] progress=continue\n[STDERR RAW] size=  144128KiB time=02:33:48.81 bitrate= 127.9kbits/s speed= 201x\n[STDOUT RAW] bitrate= 128.0kbits/s\n[STDOUT RAW] total_size=149159936\n[STDOUT RAW] out_time_us=9325945958\n[STDOUT RAW] out_time_ms=9325945958\n[STDOUT RAW] out_time=02:35:25.945958\n[STDOUT RAW] dup_frames=0\n[STDOUT RAW] drop_frames=0\n[STDOUT RAW] speed= 201x\n[STDOUT RAW] progress=continue\n[STDERR RAW] size=  145664KiB time=02:35:25.94 bitrate= 128.0kbits/s speed= 201x\n[STDOUT RAW] bitrate= 127.8kbits/s\n[STDOUT RAW] total_size=150470656\n[STDOUT RAW] out_time_us=9416233958\n[STDOUT RAW] out_time_ms=9416233958\n[STDOUT RAW] out_time=02:36:56.233958\n[STDOUT RAW] dup_frames=0\n[STDOUT RAW] drop_frames=0\n[STDOUT RAW] speed= 201x\n[STDOUT RAW] progress=continue\n[STDERR RAW] size=  146944KiB time=02:36:56.23 bitrate= 127.8kbits/s speed= 201x\n[STDOUT RAW] bitrate= 127.8kbits/s\n[STDOUT RAW] total_size=151781376\n[STDOUT RAW] out_time_us=9502849958\n[STDOUT RAW] out_time_ms=9502849958\n[STDOUT RAW] out_time=02:38:22.849958\n[STDOUT RAW] dup_frames=0\n[STDOUT RAW] drop_frames=0\n[STDOUT RAW] speed=200x\n[STDOUT RAW] progress=continue\n[STDERR RAW] size=  148224KiB time=02:38:22.84 bitrate= 127.8kbits/s speed=200x\n[STDOUT RAW] bitrate= 127.9kbits/s\n[STDOUT RAW] total_size=153616384\n[STDOUT RAW] out_time_us=9610753958\n[STDOUT RAW] out_time_ms=9610753958\n[STDOUT RAW] out_time=02:40:10.753958\n[STDOUT RAW] dup_frames=0\n[STDOUT RAW] drop_frames=0\n[STDOUT RAW] speed=200x\n[STDOUT RAW] progress=continue\n[STDERR RAW] size=  150016KiB time=02:40:10.75 bitrate= 127.9kbits/s speed=200x\n[STDOUT RAW] bitrate= 128.0kbits/s\n[STDOUT RAW] total_size=155189248\n[STDOUT RAW] out_time_us=9702241958\n[STDOUT RAW] out_time_ms=9702241958\n[STDOUT RAW] out_time=02:41:42.241958\n[STDOUT RAW] dup_frames=0\n[STDOUT RAW] drop_frames=0\n[STDOUT RAW] speed=200x\n[STDOUT RAW] progress=continue\n[STDERR RAW] size=  151552KiB time=02:41:42.24 bitrate= 128.0kbits/s speed=200x\n[STDOUT RAW] bitrate= 127.9kbits/s\n[STDOUT RAW] total_size=156499968\n[STDOUT RAW] out_time_us=9792625958\n[STDOUT RAW] out_time_ms=9792625958\n[STDOUT RAW] out_time=02:43:12.625958\n[STDOUT RAW] dup_frames=0\n[STDOUT RAW] drop_frames=0\n[STDOUT RAW] speed=200x\n[STDOUT RAW] progress=continue\n[STDERR RAW] size=  152832KiB time=02:43:12.62 bitrate= 127.9kbits/s speed=200x\n[STDOUT RAW] bitrate= 127.8kbits/s\n[STDOUT RAW] total_size=157810688\n[STDOUT RAW] out_time_us=9878689958\n[STDOUT RAW] out_time_ms=9878689958\n[STDOUT RAW] out_time=02:44:38.689958\n[STDOUT RAW] dup_frames=0\n[STDOUT RAW] drop_frames=0\n[STDOUT RAW] speed= 199x\n[STDOUT RAW] progress=continue\n[STDOUT RAW] bitrate= 127.8kbits/s\n[STDOUT RAW] total_size=159383552\n[STDERR RAW] size=  154112KiB time=02:44:38.68 bitrate= 127.8kbits/s speed= 199x\n[STDOUT RAW] out_time_us=9975289958\n[STDOUT RAW] out_time_ms=9975289958\n[STDOUT RAW] out_time=02:46:15.289958\n[STDOUT RAW] dup_frames=0\n[STDOUT RAW] drop_frames=0\n[STDOUT RAW] speed= 199x\n[STDOUT RAW] progress=continue\n[STDERR RAW] size=  155648KiB time=02:46:15.28 bitrate= 127.8kbits/s speed= 199x\n[STDOUT RAW] bitrate= 128.0kbits/s\n[STDOUT RAW] total_size=161218560\n[STDOUT RAW] out_time_us=10076905958\n[STDOUT RAW] out_time_ms=10076905958\n[STDOUT RAW] out_time=02:47:56.905958\n[STDOUT RAW] dup_frames=0\n[STDOUT RAW] drop_frames=0\n[STDOUT RAW] speed= 199x\n[STDOUT RAW] progress=continue\n[STDERR RAW] size=  157440KiB time=02:47:56.90 bitrate= 128.0kbits/s speed= 199x\n[STDOUT RAW] bitrate= 127.8kbits/s\n[STDOUT RAW] total_size=162791424\n[STDOUT RAW] out_time_us=10188361958\n[STDOUT RAW] out_time_ms=10188361958\n[STDOUT RAW] out_time=02:49:48.361958\n[STDOUT RAW] dup_frames=0\n[STDOUT RAW] drop_frames=0\n[STDOUT RAW] speed= 199x\n[STDOUT RAW] progress=continue\n[STDERR RAW] size=  158976KiB time=02:49:48.36 bitrate= 127.8kbits/s speed= 199x\n[STDOUT RAW] bitrate= 127.9kbits/s\n[STDOUT RAW] total_size=164626432\n[STDOUT RAW] out_time_us=10295473958\n[STDOUT RAW] out_time_ms=10295473958\n[STDOUT RAW] out_time=02:51:35.473958\n[STDOUT RAW] dup_frames=0\n[STDOUT RAW] drop_frames=0\n[STDOUT RAW] speed=200x\n[STDOUT RAW] progress=continue\n[STDERR RAW] size=  160768KiB time=02:51:35.47 bitrate= 127.9kbits/s speed=200x\n[STDOUT RAW] bitrate= 127.8kbits/s\n[STDOUT RAW] total_size=166199296\n[STDOUT RAW] out_time_us=10402129958\n[STDOUT RAW] out_time_ms=10402129958\n[STDOUT RAW] out_time=02:53:22.129958\n[STDOUT RAW] dup_frames=0\n[STDOUT RAW] drop_frames=0\n[STDOUT RAW] speed=200x\n[STDOUT RAW] progress=continue\n[STDERR RAW] size=  162304KiB time=02:53:22.12 bitrate= 127.8kbits/s speed=200x\n[STDOUT RAW] bitrate= 127.9kbits/s\n[STDOUT RAW] total_size=168034304\n[STDOUT RAW] out_time_us=10508185958\n[STDOUT RAW] out_time_ms=10508185958\n[STDOUT RAW] out_time=02:55:08.185958\n[STDOUT RAW] dup_frames=0\n[STDOUT RAW] drop_frames=0\n[STDOUT RAW] speed=200x\n[STDOUT RAW] progress=continue\n[STDERR RAW] size=  164096KiB time=02:55:08.18 bitrate= 127.9kbits/s speed=200x\n[STDOUT RAW] bitrate= 127.8kbits/s\n[STDOUT RAW] total_size=169607168\n[STDOUT RAW] out_time_us=10615369958\n[STDOUT RAW] out_time_ms=10615369958\n[STDOUT RAW] out_time=02:56:55.369958\n[STDOUT RAW] dup_frames=0\n[STDOUT RAW] drop_frames=0\n[STDOUT RAW] speed=200x\n[STDOUT RAW] progress=continue\n[STDERR RAW] size=  165632KiB time=02:56:55.36 bitrate= 127.8kbits/s speed=200x\n[STDOUT RAW] bitrate= 128.0kbits/s\n[STDOUT RAW] total_size=171442176\n[STDOUT RAW] out_time_us=10717225958\n[STDOUT RAW] out_time_ms=10717225958\n[STDOUT RAW] out_time=02:58:37.225958\n[STDOUT RAW] dup_frames=0\n[STDOUT RAW] drop_frames=0\n[STDOUT RAW] speed=200x\n[STDOUT RAW] progress=continue\n[STDOUT RAW] bitrate= 127.9kbits/s\n[STDERR RAW] size=  167424KiB time=02:58:37.22 bitrate= 128.0kbits/s speed=200x\n[STDOUT RAW] total_size=173015040\n[STDOUT RAW] out_time_us=10825177958\n[STDOUT RAW] out_time_ms=10825177958\n[STDOUT RAW] out_time=03:00:25.177958\n[STDOUT RAW] dup_frames=0\n[STDOUT RAW] drop_frames=0\n[STDOUT RAW] speed=200x\n[STDOUT RAW] progress=continue\n[STDERR RAW] size=  168960KiB time=03:00:25.17 bitrate= 127.9kbits/s speed=200x\n[STDOUT RAW] bitrate= 128.0kbits/s\n[STDOUT RAW] total_size=174850048\n[STDOUT RAW] out_time_us=10930849958\n[STDOUT RAW] out_time_ms=10930849958\n[STDOUT RAW] out_time=03:02:10.849958\n[STDOUT RAW] dup_frames=0\n[STDOUT RAW] drop_frames=0\n[STDOUT RAW] speed=200x\n[STDOUT RAW] progress=continue\n[STDERR RAW] size=  170752KiB time=03:02:10.84 bitrate= 128.0kbits/s speed=200x\n[STDOUT RAW] bitrate= 127.9kbits/s\n[STDOUT RAW] total_size=176422912\n[STDOUT RAW] out_time_us=11036089958\n[STDOUT RAW] out_time_ms=11036089958\n[STDOUT RAW] out_time=03:03:56.089958\n[STDOUT RAW] dup_frames=0\n[STDOUT RAW] drop_frames=0\n[STDOUT RAW] speed=200x\n[STDOUT RAW] progress=continue\n[STDERR RAW] size=  172288KiB time=03:03:56.08 bitrate= 127.9kbits/s speed=200x\n[STDOUT RAW] bitrate= 127.9kbits/s\n[STDOUT RAW] total_size=177995776\n[STDOUT RAW] out_time_us=11129353958\n[STDOUT RAW] out_time_ms=11129353958\n[STDOUT RAW] out_time=03:05:29.353958\n[STDOUT RAW] dup_frames=0\n[STDOUT RAW] drop_frames=0\n[STDOUT RAW] speed=200x\n[STDOUT RAW] progress=continue\n[STDERR RAW] size=  173824KiB time=03:05:29.35 bitrate= 127.9kbits/s speed=200x\n[STDOUT RAW] bitrate= 127.9kbits/s\n[STDOUT RAW] total_size=179830784\n[STDOUT RAW] out_time_us=11243881958\n[STDOUT RAW] out_time_ms=11243881958\n[STDOUT RAW] out_time=03:07:23.881958\n[STDOUT RAW] dup_frames=0\n[STDOUT RAW] drop_frames=0\n[STDOUT RAW] speed=200x\n[STDOUT RAW] progress=continue\n[STDERR RAW] size=  175616KiB time=03:07:23.88 bitrate= 127.9kbits/s speed=200x\n[STDERR RAW] size=  176045KiB time=03:07:46.79 bitrate= 128.0kbits/s speed=200x\n[STDOUT RAW] bitrate= 128.0kbits/s\n[STDOUT RAW] total_size=180269996\n[STDOUT RAW] out_time_us=11266790000\n[STDOUT RAW] out_time_ms=11266790000\n[STDOUT RAW] out_time=03:07:46.790000\n[STDOUT RAW] dup_frames=0\n[STDOUT RAW] drop_frames=0\n[STDOUT RAW] speed=200x\n[STDOUT RAW] progress=end\n[ConversionWorker] STDERR pipe closed signal received.\n[ConversionWorker] Detected 'progress=end' for 高冷20.wav\n[ConversionWorker] STDOUT pipe closed signal received.\n[ConversionWorker] Process finished and both stream pipes closed. Exiting loop.\n[ConversionWorker] Waiting for reader threads to join...\n[ConversionWorker] FFmpeg process ended. Return code: 0\n[ConversionWorker] Closing FFmpeg log file.\n